HIERARCHY
ROOT hip
{
  OFFSET 0.0 0.0 0.0
  CHANNELS 6 Xposition Yposition Zposition Zrotation Yrotation Xrotation
  JOINT torso
  {
    OFFSET 0.0 0.0 0.0
    CHANNELS 3 Zrotation Xrotation Yrotation
    JOINT neck
    {
      OFFSET -20.11218299999996 327.95800799999995 66.30578600000035
      CHANNELS 3 Zrotation Xrotation Yrotation
      JOINT head
      {
        OFFSET 18.28939800000012 288.83178699999996 217.81652800000006
        CHANNELS 3 Zrotation Xrotation Yrotation
        End Site
        {
          OFFSET 0.0 0.0 0.0
        }
      }
    }
    JOINT left_collar
    {
      OFFSET -20.11218299999996 327.95800799999995 66.30578600000035
      CHANNELS 3 Zrotation Xrotation Yrotation
      JOINT left_upper_arm
      {
        OFFSET -127.08163400000001 -16.17407199999991 15.44799799999987
        CHANNELS 3 Zrotation Xrotation Yrotation
        JOINT left_forearm
        {
          OFFSET -234.267792 45.78796399999999 109.31286600000021
          CHANNELS 3 Zrotation Xrotation Yrotation
          JOINT left_hand
          {
            OFFSET -259.114014 -33.25433399999997 16.18847699999992
            CHANNELS 3 Zrotation Xrotation Yrotation
            End Site
            {
              OFFSET 0.0 0.0 0.0
            }
          }
        }
      }
    }
    JOINT right_collar
    {
      OFFSET -20.11218299999996 327.95800799999995 66.30578600000035
      CHANNELS 3 Zrotation Xrotation Yrotation
      JOINT right_upper_arm
      {
        OFFSET 164.513184 1.5733030000000099 4.892333999999892
        CHANNELS 3 Zrotation Xrotation Yrotation
        JOINT right_forearm
        {
          OFFSET 260.742027 48.718444999999974 144.35229500000014
          CHANNELS 3 Zrotation Xrotation Yrotation
          JOINT right_hand
          {
            OFFSET 287.85150899999996 -44.57171600000015 13.96813899999961
            CHANNELS 3 Zrotation Xrotation Yrotation
            End Site
            {
              OFFSET 0.0 0.0 0.0
            }
          }
        }
      }
    }
  }
}
MOTION
Frames: 13
Frame Time: 0.01
-267.054934128567 208.53271940986184 950.4980543365241 10.317083982501257 -21.946735380748933 -43.62551283601597 1.57656913376203 2.65148163012763 -0.12031084537447288 -3.827715751826792 -3.7076798668267252 3.174856377532176 0.0 0.0 0.0 7.809412353632295 0.25873705891077065 3.5447344374616376 12.137190288411462 -0.8377070790495218 -63.32095624751809 -11.180133189429602 -0.6108009862793283 -2.7289607810541097 0.0 0.0 0.0 -1.3492891247612397 0.04184448667263706 0.7746240943485805 -60.84465562558507 59.70525111005925 46.940231292123585 -5.952019231317593 1.8715593483068356 7.539189855117234 0.0 0.0 0.0
-267.1367419474474 208.5067432232587 950.553936732899 10.306657185986733 -21.93700366594906 -43.62680287769154 1.592270705800732 2.631746722253853 -0.12462833857120835 -3.837643556762686 -3.685504050732107 3.180867465623054 0.0 0.0 0.0 7.805991504604198 0.2532086082089072 3.5712140892829938 12.138621430314773 -0.8403702933547956 -63.348526154568724 -11.191194574273226 -0.6116578515983886 -2.731944989171367 0.0 0.0 0.0 -1.3484898188484944 0.04184002430700325 0.7857763974161537 -60.81423029164477 59.69682604478353 46.97104723352677 -5.9394770863882 1.871695174698946 7.5468907822707045 0.0 0.0 0.0
-267.2205990058211 208.4806414157181 950.6051750090304 10.29454285509563 -21.9262531077755 -43.62743087269383 1.6083038709195427 2.6110504618250965 -0.12908355065948615 -3.8499720560466466 -3.657709710782206 3.188310399362117 0.0 0.0 0.0 7.8023384441170345 0.24781429608598235 3.5969142753379466 12.142229545458669 -0.8396738990895057 -63.375523402141376 -11.202150252368675 -0.6125355120357919 -2.733941370866126 0.0 0.0 0.0 -1.3474029412647492 0.0418251872112144 0.7970801363853663 -60.78510449999825 59.68793447962403 46.99944458976483 -5.927215392452066 1.8716596861262205 7.553628290952491 0.0 0.0 0.0
-267.3063913834883 208.45482117782768 950.6511656228139 10.281067506920799 -21.914797738262486 -43.62721782318499 1.6243095880724896 2.5898728852934845 -0.13357582225362932 -3.8643033682684145 -3.625120936871382 3.1969378992506474 0.0 0.0 0.0 7.798511721128628 0.24273736433922394 3.620931490527507 12.148014889069506 -0.835474533651533 -63.401156226398186 -11.212810619322786 -0.6134160737291721 -2.734996847384439 0.0 0.0 0.0 -1.3461072986158487 0.041801900393498556 0.8081319553881127 -60.75765468614069 59.67862333986922 47.024961850418165 -5.915502489596573 1.8714702747532177 7.559331912291738 0.0 0.0 0.0
-267.393975638529 208.42963862626576 950.6914121465144 10.26662333321829 -21.90302235474785 -43.62600276564602 1.6398986415247685 2.568739011707705 -0.13799511680652965 -3.880242527724709 -3.588478325217281 3.206498850672114 0.0 0.0 0.0 7.794570273776853 0.23815501153002483 3.6423920162176953 12.155923526517858 -0.8277190697155834 -63.424680851294944 -11.222993635780622 -0.614281799638106 -2.735175754192484 0.0 0.0 0.0 -1.3446816541358897 0.041772109240152094 0.8185157706770441 -60.7321881726692 59.66895562006035 47.0472545836379 -5.904582980725788 1.8711431600199029 7.563938734163636 0.0 0.0 0.0
-267.48318090164435 208.40539332649666 950.7255340528826 10.25165143876915 -21.891364324445558 -43.623651009357346 1.6546675390924679 2.5482003038637835 -0.1422262545919665 -3.8974034232143073 -3.548430535248572 3.216742350939905 0.0 0.0 0.0 7.790575777054194 0.23423196440039698 3.660485734892367 12.165848202472331 -0.8164483485304114 -63.44542663899394 -11.23252792515865 -0.615115550116215 -2.734554564653257 0.0 0.0 0.0 -1.3432014855461487 0.041737703230877075 0.8278211662376315 -60.70894153660355 59.65900999482084 47.06609745790168 -5.894670793507493 1.8706919382387923 7.567390597088329 0.0 0.0 0.0
-267.5738113895458 208.38232424024264 950.7532736665345 10.236622608589133 -21.88029213701959 -43.620061946955296 1.668216025723565 2.5288137455924056 -0.1461536887273359 -3.9154144346156423 -3.5055295395511696 3.2274217542203294 0.0 0.0 0.0 7.786594748539476 0.23111416445324004 3.6744993403863297 12.177630616988006 -0.8017983403786478 -63.46281946935041 -11.241255800574773 -0.6159012108058923 -2.733216604051648 0.0 0.0 0.0 -1.341736000811005 0.0417004423360387 0.8356624615555646 -60.68808100293 59.648879993573146 47.08138284990597 -5.885943209228184 1.8701263053651187 7.569631555142908 0.0 0.0 0.0
-267.6656493149581 208.36060709916626 950.7745009438283 10.222016699494104 -21.870281999370654 -43.615175952615424 1.6801651984678663 2.5111196792117716 -0.14966655550736205 -3.933923621962026 -3.460229372650138 3.238298595238043 0.0 0.0 0.0 7.7827001681029 0.22892285722266315 3.6838473687485163 12.191065087710463 -0.7839985500740537 -63.47640251964982 -11.249036156972394 -0.6166240939335061 -2.7312470381527376 0.0 0.0 0.0 -1.3403455646329274 0.04166189056807164 0.8416973483827276 -60.669704696741576 59.63867273733598 47.093116250824934 -5.878536074453031 1.8694510164182299 7.570605773830532 0.0 0.0 0.0
-267.7584581673195 208.34035318576596 950.7892157237853 10.208301886117855 -21.86179397785822 -43.608979883571195 1.6901750901889883 2.4956197299045675 -0.15266368455642088 -3.9526033009808716 -3.41288806719269 3.249146249024212 0.0 0.0 0.0 7.778972383551509 0.22774938723960952 3.6880993959202923 12.205903547684766 -0.7633675530050619 -63.48585360569581 -11.255747153376987 -0.6172712998167658 -2.7287283889308505 0.0 0.0 0.0 -1.3390796678231633 0.04162336147770118 0.845643947265637 -60.65384658524586 59.62850724435884 47.10140870064585 -5.872540371794259 1.868665138861261 7.57025603192147 0.0 0.0 0.0
-267.85198633861535 208.32160948404533 950.7975471273021 10.195914994718096 -21.855249242136907 -43.601510741433245 1.6979605932241781 2.482756179958143 -0.15505824157262374 -3.9711538445709698 -3.3637723775979693 3.2597531818096415 0.0 0.0 0.0 7.775499115118087 0.22765099510553113 3.687001790068949 12.221861794493426 -0.7403056311502656 -63.49099825352585 -11.261288607267915 -0.6178320267254143 -2.725736795527629 0.0 0.0 0.0 -1.3379755409346767 0.041585880090896796 0.8472951969815751 -60.64048192364068 59.61851231780357 47.10646651766017 -5.868000281151214 1.8677616482213688 7.568522978330377 0.0 0.0 0.0
-267.9459710691832 208.30436014995382 950.7997498709254 10.18524403038604 -21.851009840295635 -43.592857134049524 1.7033047214754145 2.4728940352463393 -0.15678170090258864 -3.9893065823011193 -3.3130648320978366 3.269925668347018 0.0 0.0 0.0 7.772374446010901 0.22864787809836776 3.680492605824613 12.238626860921203 -0.7152845953568197 -63.49181774677344 -11.265584026059152 -0.6182978191103797 -2.7223391947174855 0.0 0.0 0.0 -1.337057471999197 0.04155016470322445 0.8465296567540704 -60.62953398027022 59.608824035965725 47.10857865832227 -5.864912815717425 1.8667274016357587 7.565345262843852 0.0 0.0 0.0
-268.04014268652605 208.28852924485986 950.7961973824204 10.176613785892567 -21.84936218403777 -43.58315830003479 1.7060684233425052 2.466306795214022 -0.15778689831413023 -4.006825720725438 -3.2608726241172565 3.279489886710511 0.0 0.0 0.0 7.769696788382971 0.2307217136927176 3.6687085578881202 12.255865320788315 -0.6888350299345353 -63.488451569739304 -11.26858220518493 -0.6186627463738732 -2.7185915372532508 0.0 0.0 0.0 -1.3363368390971548 0.04151663013174755 0.8433180419088664 -60.62088176603065 59.59958287673375 47.10810213235921 -5.86322906659922 1.865543508139864 7.560660608517795 0.0 0.0 0.0
-268.13422910434525 208.2739846711173 950.7873717343504 10.170275160256114 -21.850505105737632 -43.57260060365118 1.7061964158304588 2.463166653952092 -0.15804998460847708 -4.023509265112486 -3.207237852029043 3.2882933446116516 0.0 0.0 0.0 7.767565927814434 0.23381576521706227 3.651983462936096 12.273232284285617 -0.6615313579119734 -63.4811939235118 -11.27025832602721 -0.6189235064836167 -2.714538089070648 0.0 0.0 0.0 -1.3358128184011735 0.04148541177571949 0.8377250929662816 -60.61436844785163 59.59093052439695 47.105445986860055 -5.862857033076802 1.8641860933419123 7.554407825694959 0.0 0.0 0.0
